<mxfile host="app.diagrams.net" modified="2021-02-01T10:01:27.470Z" agent="5.0 (Windows NT 10.0; Win64; x64) AppleWebKit/537.36 (KHTML, like Gecko) Chrome/87.0.4280.141 Safari/537.36" etag="vl3rDrp6OgZlGjIwjAex" version="14.2.7" type="github" pages="3">
  <diagram id="-y8sBRm6es0vzqKU_CKR" name="Page-1">
    <mxGraphModel dx="1422" dy="762" grid="1" gridSize="10" guides="1" tooltips="1" connect="1" arrows="1" fold="1" page="1" pageScale="1" pageWidth="850" pageHeight="1100" math="0" shadow="0">
      <root>
        <mxCell id="0" />
        <mxCell id="1" parent="0" />
        <mxCell id="TzDFR4Wa2j6vs4kXtx52-1" value="" style="ellipse;whiteSpace=wrap;html=1;fontSize=36;align=center;" vertex="1" parent="1">
          <mxGeometry x="190" y="130" width="470" height="80" as="geometry" />
        </mxCell>
        <mxCell id="1V6EmuIIAvf8kzmlV5Jx-1" value="Carousel" style="rounded=1;whiteSpace=wrap;html=1;fontSize=36;" vertex="1" parent="1">
          <mxGeometry y="60" width="850" height="250" as="geometry" />
        </mxCell>
        <mxCell id="1V6EmuIIAvf8kzmlV5Jx-2" value="&lt;font style=&quot;font-size: 36px&quot;&gt;navbar&lt;/font&gt;" style="rounded=0;whiteSpace=wrap;html=1;" vertex="1" parent="1">
          <mxGeometry width="850" height="60" as="geometry" />
        </mxCell>
        <mxCell id="1V6EmuIIAvf8kzmlV5Jx-4" value="footer" style="rounded=0;whiteSpace=wrap;html=1;" vertex="1" parent="1">
          <mxGeometry y="870" width="850" height="230" as="geometry" />
        </mxCell>
        <mxCell id="1V6EmuIIAvf8kzmlV5Jx-5" value="main body intro" style="rounded=0;whiteSpace=wrap;html=1;align=center;" vertex="1" parent="1">
          <mxGeometry x="20" y="410" width="810" height="260" as="geometry" />
        </mxCell>
        <mxCell id="1V6EmuIIAvf8kzmlV5Jx-6" value="&lt;font style=&quot;font-size: 36px&quot;&gt;header&lt;/font&gt;" style="rounded=0;whiteSpace=wrap;html=1;" vertex="1" parent="1">
          <mxGeometry x="10" y="330" width="830" height="60" as="geometry" />
        </mxCell>
      </root>
    </mxGraphModel>
  </diagram>
  <diagram id="h5OJaNVPDW9sxpA8pSqT" name="Page-2">
    <mxGraphModel dx="1422" dy="762" grid="1" gridSize="10" guides="1" tooltips="1" connect="1" arrows="1" fold="1" page="1" pageScale="1" pageWidth="850" pageHeight="1100" math="0" shadow="0">
      <root>
        <mxCell id="U1gxKIVl89LrdakXwobt-0" />
        <mxCell id="U1gxKIVl89LrdakXwobt-1" parent="U1gxKIVl89LrdakXwobt-0" />
        <mxCell id="U1gxKIVl89LrdakXwobt-2" value="navbar" style="rounded=0;whiteSpace=wrap;html=1;fontSize=36;align=center;" vertex="1" parent="U1gxKIVl89LrdakXwobt-1">
          <mxGeometry width="850" height="60" as="geometry" />
        </mxCell>
        <mxCell id="U1gxKIVl89LrdakXwobt-3" value="pic" style="rounded=0;whiteSpace=wrap;html=1;fontSize=36;align=center;" vertex="1" parent="U1gxKIVl89LrdakXwobt-1">
          <mxGeometry y="120" width="310" height="190" as="geometry" />
        </mxCell>
        <mxCell id="U1gxKIVl89LrdakXwobt-4" value="info" style="rounded=1;whiteSpace=wrap;html=1;fontSize=36;align=center;" vertex="1" parent="U1gxKIVl89LrdakXwobt-1">
          <mxGeometry x="310" y="150" width="540" height="130" as="geometry" />
        </mxCell>
        <mxCell id="U1gxKIVl89LrdakXwobt-5" value="pic" style="rounded=0;whiteSpace=wrap;html=1;fontSize=36;align=center;" vertex="1" parent="U1gxKIVl89LrdakXwobt-1">
          <mxGeometry x="540" y="400" width="310" height="200" as="geometry" />
        </mxCell>
        <mxCell id="U1gxKIVl89LrdakXwobt-6" value="info" style="rounded=1;whiteSpace=wrap;html=1;fontSize=36;align=center;" vertex="1" parent="U1gxKIVl89LrdakXwobt-1">
          <mxGeometry y="410" width="540" height="170" as="geometry" />
        </mxCell>
        <mxCell id="U1gxKIVl89LrdakXwobt-7" value="info" style="rounded=1;whiteSpace=wrap;html=1;fontSize=36;align=center;" vertex="1" parent="U1gxKIVl89LrdakXwobt-1">
          <mxGeometry x="300" y="700" width="550" height="130" as="geometry" />
        </mxCell>
        <mxCell id="U1gxKIVl89LrdakXwobt-8" value="pic" style="rounded=0;whiteSpace=wrap;html=1;fontSize=36;align=center;" vertex="1" parent="U1gxKIVl89LrdakXwobt-1">
          <mxGeometry y="670" width="300" height="190" as="geometry" />
        </mxCell>
        <mxCell id="U1gxKIVl89LrdakXwobt-9" value="pic" style="rounded=0;whiteSpace=wrap;html=1;fontSize=36;align=center;" vertex="1" parent="U1gxKIVl89LrdakXwobt-1">
          <mxGeometry x="540" y="930" width="310" height="170" as="geometry" />
        </mxCell>
        <mxCell id="U1gxKIVl89LrdakXwobt-10" value="info" style="rounded=1;whiteSpace=wrap;html=1;fontSize=36;align=center;" vertex="1" parent="U1gxKIVl89LrdakXwobt-1">
          <mxGeometry y="950" width="540" height="130" as="geometry" />
        </mxCell>
        <mxCell id="U1gxKIVl89LrdakXwobt-11" value="pic" style="rounded=0;whiteSpace=wrap;html=1;fontSize=36;align=center;" vertex="1" parent="U1gxKIVl89LrdakXwobt-1">
          <mxGeometry y="1200" width="330" height="200" as="geometry" />
        </mxCell>
        <mxCell id="U1gxKIVl89LrdakXwobt-12" value="info" style="rounded=1;whiteSpace=wrap;html=1;fontSize=36;align=center;" vertex="1" parent="U1gxKIVl89LrdakXwobt-1">
          <mxGeometry x="330" y="1220" width="520" height="160" as="geometry" />
        </mxCell>
        <mxCell id="U1gxKIVl89LrdakXwobt-13" value="pic" style="rounded=0;whiteSpace=wrap;html=1;fontSize=36;align=center;" vertex="1" parent="U1gxKIVl89LrdakXwobt-1">
          <mxGeometry x="530" y="1510" width="320" height="220" as="geometry" />
        </mxCell>
        <mxCell id="U1gxKIVl89LrdakXwobt-14" value="info" style="rounded=1;whiteSpace=wrap;html=1;fontSize=36;align=center;" vertex="1" parent="U1gxKIVl89LrdakXwobt-1">
          <mxGeometry y="1550" width="530" height="140" as="geometry" />
        </mxCell>
        <mxCell id="U1gxKIVl89LrdakXwobt-15" value="footer" style="rounded=0;whiteSpace=wrap;html=1;fontSize=36;align=center;" vertex="1" parent="U1gxKIVl89LrdakXwobt-1">
          <mxGeometry y="1970" width="850" height="230" as="geometry" />
        </mxCell>
        <mxCell id="U1gxKIVl89LrdakXwobt-16" value="customer info input" style="rounded=0;whiteSpace=wrap;html=1;fontSize=36;align=center;" vertex="1" parent="U1gxKIVl89LrdakXwobt-1">
          <mxGeometry y="1720" width="380" height="240" as="geometry" />
        </mxCell>
      </root>
    </mxGraphModel>
  </diagram>
  <diagram id="kk1oegvLgnopsf4eiMgh" name="Page-3">
    <mxGraphModel dx="1422" dy="762" grid="1" gridSize="10" guides="1" tooltips="1" connect="1" arrows="1" fold="1" page="1" pageScale="1" pageWidth="850" pageHeight="1100" math="0" shadow="0">
      <root>
        <mxCell id="IfJZyaDVNxai2thdOl5_-0" />
        <mxCell id="IfJZyaDVNxai2thdOl5_-1" parent="IfJZyaDVNxai2thdOl5_-0" />
        <mxCell id="IfJZyaDVNxai2thdOl5_-2" value="navbar" style="rounded=0;whiteSpace=wrap;html=1;fontSize=36;align=center;" vertex="1" parent="IfJZyaDVNxai2thdOl5_-1">
          <mxGeometry width="850" height="60" as="geometry" />
        </mxCell>
        <mxCell id="IfJZyaDVNxai2thdOl5_-5" style="edgeStyle=orthogonalEdgeStyle;rounded=0;orthogonalLoop=1;jettySize=auto;html=1;exitX=0.5;exitY=1;exitDx=0;exitDy=0;fontSize=36;" edge="1" parent="IfJZyaDVNxai2thdOl5_-1" source="IfJZyaDVNxai2thdOl5_-3">
          <mxGeometry relative="1" as="geometry">
            <mxPoint x="425" y="430" as="targetPoint" />
          </mxGeometry>
        </mxCell>
        <mxCell id="IfJZyaDVNxai2thdOl5_-3" value="about page" style="rounded=0;whiteSpace=wrap;html=1;fontSize=36;align=center;" vertex="1" parent="IfJZyaDVNxai2thdOl5_-1">
          <mxGeometry y="110" width="850" height="600" as="geometry" />
        </mxCell>
        <mxCell id="IfJZyaDVNxai2thdOl5_-4" value="footer" style="rounded=0;whiteSpace=wrap;html=1;fontSize=36;align=center;" vertex="1" parent="IfJZyaDVNxai2thdOl5_-1">
          <mxGeometry y="830" width="850" height="270" as="geometry" />
        </mxCell>
        <mxCell id="IfJZyaDVNxai2thdOl5_-6" value="Text" style="text;html=1;strokeColor=none;fillColor=none;align=center;verticalAlign=middle;whiteSpace=wrap;rounded=0;fontSize=36;" vertex="1" parent="IfJZyaDVNxai2thdOl5_-1">
          <mxGeometry x="290" y="280" width="290" height="380" as="geometry" />
        </mxCell>
        <mxCell id="IfJZyaDVNxai2thdOl5_-7" value="Text" style="text;html=1;strokeColor=none;fillColor=none;align=center;verticalAlign=middle;whiteSpace=wrap;rounded=0;fontSize=36;" vertex="1" parent="IfJZyaDVNxai2thdOl5_-1">
          <mxGeometry x="240" y="870" width="350" height="280" as="geometry" />
        </mxCell>
      </root>
    </mxGraphModel>
  </diagram>
</mxfile>
